<?xml version="1.0" encoding="UTF-8"?>
<svg id="Calque_2" data-name="Calque 2" xmlns="http://www.w3.org/2000/svg" viewBox="0 0 213.98 138.72">
  <defs>
    <style>
      .cls-1 {
        letter-spacing: -.05em;
      }

      .cls-2 {
        letter-spacing: -.15em;
      }

      .cls-3 {
        font-family: AmmoniteRegular, Ammonite;
        font-size: 71.58px;
      }

      .cls-3, .cls-4 {
        fill: #d5ff01;
      }

      .cls-5 {
        letter-spacing: 0em;
      }

      .cls-6 {
        letter-spacing: -.12em;
      }

      .cls-7 {
        letter-spacing: -.1em;
      }
    </style>
  </defs>
  <g id="Calque_1-2" data-name="Calque 1">
    <g>
      <path class="cls-4" d="m4.5,36.8c7.12-.2,14.24-.42,21.36-.59,8.98-.22,17.95-.41,26.93-.59,6.25-.12,12.49-.22,18.74-.3,8.64-.11,17.28-.21,25.92-.3,9.28-.1,18.55-.09,27.83-.33,9.52-.24,19-1.07,28.09-4.24,6.77-2.37,12.69-5.99,16.76-12.12,2.88-4.35,4.32-9.22,5.25-14.28.26-1.43.42-2.88.59-4.04,1.52,10.92,5.06,21.13,13.84,28.89,2.5,2.21,5.46,3.55,8.53,4.72,5.09,1.95,10.37,2.98,15.65,3.31-5.09.44-10.2,1.53-15.22,3.22-7.12,2.4-12.27,7.02-16.04,13.34-3.8,6.37-5.95,13.28-6.74,20.68-.58-5.2-1.64-10.21-3.84-14.95-2.9-6.25-7.66-10.6-13.73-13.63-5.87-2.93-12.13-4.59-18.63-5.15-6.8-.59-13.62-.98-20.44-1.17-9.32-.25-18.65-.22-27.97-.33-7.86-.09-15.71-.17-23.57-.3-10.39-.17-20.79-.33-31.18-.59-10.54-.27-21.07-.66-31.6-1-.17,0-.35-.03-.52-.04,0-.07,0-.14,0-.2Z"/>
      <text class="cls-3" transform="translate(4.58 115.82)"><tspan x="0" y="0">s</tspan><tspan class="cls-7" x="37.86" y="0">t</tspan><tspan class="cls-5" x="57.12" y="0">e</tspan><tspan class="cls-6" x="94.98" y="0">l</tspan><tspan class="cls-2" x="112.45" y="0">l</tspan><tspan class="cls-1" x="128.12" y="0">a</tspan><tspan class="cls-5" x="165.98" y="0">r</tspan></text>
    </g>
  </g>
</svg>